Berlin - Sex Parade (2003)

Cover: 
http://imagebb.org/view.php?filename=641v4456o.jpg

Preview: 
http://imagebb.org/view.php?filename=695Berlin_Sex_Parade_2003.jpg - CD1 
http://imagebb.org/view.php?filename=499Berlin_Sex_Parade_2003.jpg - CD2

Info CD1:
Format                           : AVI
Format/Info                      : Audio Video Interleave
File size                        : 708 MiB
Duration                         : 42mn 13s
Overall bit rate mode            : Variable
Overall bit rate                 : 2 345 Kbps

Video
ID                               : 0
Format                           : MPEG-4 Visual
Format settings, BVOP            : 1
Format settings, QPel            : No
Format settings, GMC             : No warppoints
Format settings, Matrix          : Default (H.263)
Muxing mode                      : Packed bitstream
Codec ID                         : DX50
Codec ID/Hint                    : DivX 5
Duration                         : 42mn 13s
Bit rate                         : 2 201 Kbps
Width                            : 480 pixels
Height                           : 352 pixels
Display aspect ratio             : 4:3
Frame rate                       : 25.000 fps
Color space                      : YUV
Chroma subsampling               : 4:2:0
Bit depth                        : 8 bits
Scan type                        : Progressive
Compression mode                 : Lossy
Bits/(Pixel*Frame)               : 0.521
Stream size                      : 665 MiB (94%)
Title                            : Video
Writing library                  : DivX 5.2.1 Alpha (UTC 2004-09-08)

Audio
ID                               : 1
Format                           : MPEG Audio
Format version                   : Version 1
Format profile                   : Layer 3
Mode                             : Joint stereo
Mode extension                   : MS Stereo
Codec ID                         : 55
Codec ID/Hint                    : MP3
Duration                         : 42mn 13s
Bit rate mode                    : Variable
Bit rate                         : 128 Kbps
Channel(s)                       : 2 channels
Sampling rate                    : 44.1 KHz
Compression mode                 : Lossy
Stream size                      : 39.8 MiB (6%)
Alignment                        : Aligned on interleaves
Interleave, duration             : 26 ms (0.65 video frame)
Interleave, preload duration     : 464 ms
Title                            : Audio
